<?xml version="1.0" encoding="UTF-8" standalone="no"?>
<svg
   id="svg236727"
   viewBox="0 0 1024 480"
   height="480px"
   width="1024px"
   version="1.1"
   sodipodi:docname="logo.svg"
   inkscape:version="1.1.2 (0a00cf5339, 2022-02-04)"
   xmlns:inkscape="http://www.inkscape.org/namespaces/inkscape"
   xmlns:sodipodi="http://sodipodi.sourceforge.net/DTD/sodipodi-0.dtd"
   xmlns="http://www.w3.org/2000/svg"
   xmlns:svg="http://www.w3.org/2000/svg"
   xmlns:rdf="http://www.w3.org/1999/02/22-rdf-syntax-ns#"
   xmlns:cc="http://creativecommons.org/ns#"
   xmlns:dc="http://purl.org/dc/elements/1.1/">
  <sodipodi:namedview
     id="namedview15"
     pagecolor="#ffffff"
     bordercolor="#666666"
     borderopacity="1.0"
     inkscape:pageshadow="2"
     inkscape:pageopacity="0.0"
     inkscape:pagecheckerboard="0"
     showgrid="false"
     inkscape:zoom="1.0166667"
     inkscape:cx="536.55738"
     inkscape:cy="297.04918"
     inkscape:window-width="1366"
     inkscape:window-height="711"
     inkscape:window-x="0"
     inkscape:window-y="0"
     inkscape:window-maximized="1"
     inkscape:current-layer="layer1" />
  <metadata
     id="metadata236733">
    <rdf:RDF>
      <cc:Work
         rdf:about="">
        <dc:format>image/svg+xml</dc:format>
        <dc:type
           rdf:resource="http://purl.org/dc/dcmitype/StillImage" />
      </cc:Work>
    </rdf:RDF>
  </metadata>
  <defs
     id="defs236731" />
  <style
     id="style236724">
    #title &gt; path {
        fill: #9aafd4;
    }
    .c1{
    fill: #9aafd4;
    }
    .c2{
    fill: #a4bdd8;
    }
    .c3{
    fill: #bdd2e5;
    }
  </style>
  <g
     inkscape:groupmode="layer"
     id="layer1"
     inkscape:label="background" />
  <g
     id="title"
     style="font-style:normal;font-weight:400;font-size:126.5px;line-height:1;font-family:'Comfortaa Bold Alt1';font-variant-ligatures:none;text-align:left;dominant-baseline:middle;text-anchor:middle"
     aria-label="Trackify"
     transform="translate(-16.402408,-8.4605533)">
    <path
       id="path236735"
       style="font-style:normal;font-weight:400;font-size:126.5px;line-height:1;font-family:'Comfortaa Bold Alt1';font-variant-ligatures:none;text-align:left;dominant-baseline:middle;text-anchor:middle;fill:#000000;fill-opacity:1"
       d="m 337.58911,177.57225 c -1.1385,-1.1385 -2.53,-1.771 -4.301,-1.771 h -67.6775 c -1.771,0 -3.289,0.6325 -4.4275,1.771 -1.1385,1.1385 -1.6445,2.53 -1.6445,4.301 0,1.771 0.506,3.289 1.6445,4.4275 1.1385,1.1385 2.6565,1.6445 4.4275,1.6445 h 23.529 c 1.012,0 1.8975,0.3795 2.6565,1.1385 0.759,0.759 1.1385,1.6445 1.1385,2.6565 v 76.2795 c 0,1.8975 0.6325,3.4155 1.8975,4.6805 1.265,1.265 2.783,1.8975 4.6805,1.8975 1.771,0 3.4155,-0.6325 4.6805,-1.8975 1.265,-1.265 1.8975,-2.783 1.8975,-4.6805 v -76.2795 c 0,-1.012 0.3795,-1.8975 1.1385,-2.6565 0.759,-0.759 1.6445,-1.1385 2.6565,-1.1385 h 23.4025 c 1.771,0 3.1625,-0.506 4.301,-1.6445 1.1385,-1.1385 1.771,-2.6565 1.771,-4.4275 0,-1.771 -0.6325,-3.1625 -1.771,-4.301 z" />
    <path
       id="path236737"
       style="font-style:normal;font-weight:400;font-size:126.5px;line-height:1;font-family:'Comfortaa Bold Alt1';font-variant-ligatures:none;text-align:left;dominant-baseline:middle;text-anchor:middle;fill:#000000;fill-opacity:1"
       d="m 379.14832,206.66725 c -2.53,-1.265 -6.072,-2.024 -10.4995,-2.024 -4.301,0 -8.2225,0.8855 -11.891,2.53 -3.795,1.771 -6.831,4.048 -9.361,6.9575 v -2.4035 c 0,-4.1745 -2.1505,-6.325 -6.325,-6.325 -2.024,0 -3.6685,0.6325 -4.6805,1.6445 -1.1385,1.1385 -1.6445,2.6565 -1.6445,4.6805 v 56.5455 c 0,2.1505 0.506,3.795 1.6445,4.807 1.012,1.012 2.6565,1.518 4.6805,1.518 2.024,0 3.6685,-0.506 4.6805,-1.6445 1.012,-1.012 1.6445,-2.6565 1.6445,-4.6805 v -36.938 c 0,-4.6805 1.771,-8.4755 5.566,-11.2585 3.6685,-2.783 8.602,-4.1745 14.674,-4.1745 2.024,0 4.807,0.3795 8.2225,0.8855 0.759,0.253 1.3915,0.253 1.8975,0.253 2.53,0 4.301,-1.265 5.06,-4.048 0,-0.253 0.1265,-0.6325 0.1265,-1.265 0,-2.024 -1.265,-3.6685 -3.795,-5.06 z" />
    <path
       id="path236739"
       style="font-style:normal;font-weight:400;font-size:126.5px;line-height:1;font-family:'Comfortaa Bold Alt1';font-variant-ligatures:none;text-align:left;dominant-baseline:middle;text-anchor:middle;fill:#073882;fill-opacity:1"
       d="m 457.48542,240.06325 c 0,-6.4515 -1.6445,-12.5235 -4.6805,-17.8365 -3.036,-5.313 -7.2105,-9.614 -12.5235,-12.65 -5.313,-3.036 -11.132,-4.6805 -17.5835,-4.6805 -6.578,0 -12.5235,1.6445 -17.8365,4.6805 -5.313,3.036 -9.4875,7.337 -12.5235,12.65 -3.036,5.313 -4.554,11.2585 -4.554,17.8365 0,6.578 1.3915,12.65 4.1745,17.963 2.783,5.313 6.7045,9.4875 11.638,12.5235 5.06,3.1625 10.4995,4.6805 16.5715,4.6805 h 1.012 30.2335 c 1.6445,0 3.036,-0.6325 4.301,-1.771 1.1385,-1.1385 1.771,-2.53 1.771,-4.301 v -0.8855 z m -54.395,12.144 c -2.024,-3.542 -2.9095,-7.59 -2.9095,-12.144 0,-4.4275 0.8855,-8.4755 2.9095,-12.144 2.024,-3.542 4.6805,-6.4515 8.096,-8.4755 3.4155,-2.024 7.2105,-3.1625 11.5115,-3.1625 4.1745,0 7.9695,1.1385 11.385,3.1625 3.4155,2.024 6.072,4.9335 8.096,8.4755 1.8975,3.6685 2.9095,7.7165 2.9095,12.144 0,4.554 -1.012,8.602 -2.9095,12.144 -2.024,3.542 -4.6805,6.4515 -8.096,8.4755 -3.4155,2.024 -7.2105,3.036 -11.385,3.036 -4.301,0 -8.096,-1.012 -11.5115,-3.036 -3.4155,-2.024 -6.072,-4.9335 -8.096,-8.4755 z" />
    <path
       id="path236741"
       style="font-style:normal;font-weight:400;font-size:126.5px;line-height:1;font-family:'Comfortaa Bold Alt1';font-variant-ligatures:none;text-align:left;dominant-baseline:middle;text-anchor:middle;fill:#000000;fill-opacity:1"
       d="m 532.34575,216.28125 c -6.578,-7.59 -14.927,-11.385 -24.794,-11.385 -6.578,0 -12.5235,1.518 -17.71,4.554 -5.313,3.036 -9.361,7.2105 -12.2705,12.5235 -2.9095,5.313 -4.301,11.385 -4.301,18.0895 0,6.578 1.3915,12.65 4.4275,17.963 3.036,5.313 7.2105,9.4875 12.5235,12.5235 5.313,3.036 11.2585,4.554 17.963,4.554 9.108,0 16.698,-2.783 22.77,-8.4755 1.012,-1.012 1.518,-2.1505 1.518,-3.4155 0,-1.6445 -0.8855,-3.1625 -2.4035,-4.554 -1.012,-0.759 -2.1505,-1.1385 -3.289,-1.1385 -1.518,0 -3.1625,0.6325 -4.6805,1.771 -3.542,3.036 -8.2225,4.4275 -13.915,4.4275 -4.4275,0 -8.349,-1.012 -11.7645,-3.036 -3.4155,-2.024 -6.072,-4.807 -7.9695,-8.349 -1.8975,-3.542 -2.783,-7.7165 -2.783,-12.2705 0,-7.084 2.024,-12.903 6.072,-17.204 4.048,-4.301 9.2345,-6.578 15.8125,-6.578 3.1625,0 5.9455,0.6325 8.4755,1.6445 2.53,1.012 4.807,2.6565 6.9575,4.9335 1.265,1.518 2.9095,2.277 4.9335,2.277 1.012,0 2.024,-0.253 2.9095,-0.8855 1.771,-1.265 2.783,-2.783 2.783,-4.6805 0,-1.265 -0.506,-2.277 -1.265,-3.289 z" />
    <path
       id="path236743"
       style="font-style:normal;font-weight:400;font-size:126.5px;line-height:1;font-family:'Comfortaa Bold Alt1';font-variant-ligatures:none;text-align:left;dominant-baseline:middle;text-anchor:middle;fill:#000000;fill-opacity:1"
       d="m 606.5459,269.28475 c 0,-1.518 -0.506,-2.783 -1.3915,-3.795 l -24.541,-30.107 23.276,-20.746 c 1.265,-1.012 2.024,-2.53 2.024,-4.301 0,-1.518 -0.6325,-2.783 -1.6445,-3.9215 -1.1385,-1.265 -2.53,-2.024 -4.301,-2.024 -1.518,0 -2.9095,0.6325 -3.9215,1.6445 l -30.7395,27.4505 v -51.4855 c 0,-1.771 -0.6325,-3.289 -1.771,-4.4275 -1.1385,-1.1385 -2.6565,-1.771 -4.4275,-1.771 -1.8975,0 -3.4155,0.6325 -4.554,1.771 -1.1385,1.1385 -1.6445,2.6565 -1.6445,4.4275 v 86.3995 c 0,1.8975 0.506,3.4155 1.6445,4.554 1.1385,1.1385 2.6565,1.6445 4.554,1.6445 1.771,0 3.289,-0.506 4.4275,-1.6445 1.1385,-1.1385 1.771,-2.6565 1.771,-4.554 v -19.3545 l 6.325,-5.566 24.035,29.7275 c 1.1385,1.518 2.6565,2.277 4.554,2.277 1.3915,0 2.783,-0.506 4.048,-1.518 1.518,-1.265 2.277,-2.783 2.277,-4.6805 z" />
    <path
       id="path236745"
       style="font-style:normal;font-weight:400;font-size:126.5px;line-height:1;font-family:'Comfortaa Bold Alt1';font-variant-ligatures:none;text-align:left;dominant-baseline:middle;text-anchor:middle;fill:#000000;fill-opacity:1"
       d="m 627.84336,207.17325 c -1.265,1.265 -1.771,2.783 -1.771,4.6805 v 56.2925 c 0,1.8975 0.506,3.4155 1.771,4.6805 1.265,1.265 2.783,1.771 4.6805,1.771 1.8975,0 3.4155,-0.506 4.6805,-1.771 1.1385,-1.265 1.771,-2.783 1.771,-4.6805 v -56.2925 c 0,-1.8975 -0.6325,-3.4155 -1.771,-4.6805 -1.265,-1.1385 -2.783,-1.771 -4.6805,-1.771 -1.8975,0 -3.4155,0.6325 -4.6805,1.771 z" />
    <path
       id="path236747"
       style="font-style:normal;font-weight:400;font-size:126.5px;line-height:1;font-family:'Comfortaa Bold Alt1';font-variant-ligatures:none;text-align:left;dominant-baseline:middle;text-anchor:middle;fill:#000000;fill-opacity:1"
       d="m 664.36826,207.93225 v 10.879 49.335 c 0,2.024 0.506,3.542 1.771,4.6805 1.265,1.265 2.6565,1.771 4.4275,1.771 2.024,0 3.6685,-0.506 4.9335,-1.771 1.1385,-1.1385 1.771,-2.6565 1.771,-4.6805 v -49.335 h 12.903 c 1.771,0 3.1625,-0.506 4.301,-1.518 1.012,-1.012 1.6445,-2.277 1.6445,-3.795 0,-1.6445 -0.6325,-3.036 -1.6445,-4.048 -1.1385,-1.012 -2.53,-1.518 -4.301,-1.518 h -12.903 v -3.4155 c 0,-5.06 1.3915,-9.2345 4.301,-12.397 2.783,-3.036 6.578,-4.6805 11.385,-4.6805 1.771,0 3.289,-0.506 4.554,-1.6445 1.265,-1.012 1.8975,-2.4035 1.8975,-4.1745 0,-1.6445 -0.6325,-3.036 -1.8975,-4.1745 -1.265,-1.012 -2.783,-1.6445 -4.554,-1.6445 -5.6925,0 -10.626,1.265 -14.927,3.795 -4.301,2.53 -7.7165,5.9455 -10.12,10.4995 -2.4035,4.554 -3.542,9.7405 -3.542,15.686 z" />
    <path
       id="path236749"
       style="font-style:normal;font-weight:400;font-size:126.5px;line-height:1;font-family:'Comfortaa Bold Alt1';font-variant-ligatures:none;text-align:left;dominant-baseline:middle;text-anchor:middle;fill:#000000;fill-opacity:1"
       d="m 766.35098,210.96825 c 0,-2.277 -1.3915,-3.9215 -3.9215,-4.9335 -1.012,-0.3795 -2.024,-0.6325 -3.036,-0.6325 -2.277,0 -3.9215,1.265 -4.9335,3.6685 l -20.3665,45.9195 -23.1495,-46.046 c -1.265,-2.277 -3.036,-3.542 -5.313,-3.542 -1.012,0 -1.771,0.253 -2.53,0.506 -1.1385,0.506 -2.024,1.265 -2.6565,2.1505 -0.759,1.012 -1.012,2.024 -1.012,3.036 0,1.012 0.1265,1.8975 0.6325,2.6565 l 28.4625,54.0155 -12.65,28.4625 c -0.506,1.012 -0.759,2.024 -0.759,3.036 0,2.277 1.265,3.9215 3.795,4.9335 1.1385,0.506 2.1505,0.759 3.036,0.759 2.277,0 3.9215,-1.265 4.9335,-3.9215 l 38.709,-87.032 c 0.506,-1.1385 0.759,-2.1505 0.759,-3.036 z" />
  </g>
</svg>
